/* XPM */
static char * font_xpm[] = {
"80 80 2 1",
" 	c None",
".	c #FFFFFF",
"                                                                                ",
"          .                  .                            .                     ",
"          .                  .             ...            .        .        .   ",
"   ...    ...      ...     ...     ..     .        ..     ...                   ",
"  .  .    .  .    .       .  .    ....    ...     .  .    .  .     .        .   ",
"  .  .    .  .    .       .  .    .       .        ...    .  .     .        .   ",
"   ...     ..      ...     ..      ...    .          .    .  .     .      . .   ",
"                                                  ...                      .    ",
"                                                                                ",
"  .  .     .                                                               .    ",
"  . .      .                                                               .    ",
"  ..       .     . . .   . ..      ..      ..      ..     . ..     ...    ...   ",
"  . .      .      . . .   .  .    .  .    .  .    .  .     .      .        .    ",
"  .  .     .      .   .   .  .    .  .    ...      ...     .       ...     .    ",
"  .  .     .      .   .   .  .     ..     .          .     .      ....     ..   ",
"                                          .          .                          ",
"                                                                                ",
"                                                                                ",
"                                                                                ",
"  .  .   .   .    .   .   .  .    .  .    ....                                  ",
"  .  .   .   .    . . .     .      ...      .                                   ",
"  .  .    . .     . . .    .         .     .       ..                           ",
"   ..      .       . .    .  .    ...     ....     ..                           ",
"                                                                                ",
"                                                                                ",
"                                                                                ",
"                                                                                ",
"                                                                                ",
"                                                                                ",
"                                                                                ",
"                                                                                ",
"                                                                                ",
"                                                                                ",
"   ..       .      ..     ...     .  .    ....     ...    ....     ..      ..   ",
"  .  .     ..     .  .       .    .  .    .       .          .    .  .    .  .  ",
"  .  .      .        .       .     ...    ...     .         .     ....    .  .  ",
"  . ..      .       .      ...       .       .    . ..     ...    .  .     ...  ",
"  .. .      .      .         .       .       .    .  .      .     .  .       .  ",
"   ..      ...    ....    ...        .    ...      ...      .      ..        .  ",
"                                                                                ",
"                                                                                ",
"                                                                                ",
"                                                                                ",
"                                                                                ",
"                                                                                ",
"                                                                                ",
"                                                                                ",
"                                                                                ",
"                                                                                ",
"                                                                                ",
"                                                                                ",
"                                                                                ",
"                                                                                ",
"                                                                                ",
"                                                                                ",
"                                                                                ",
"                                                                                ",
"                                                                                ",
"                                                                                ",
"                                                                                ",
"                                                                                ",
"                                                                                ",
"                                                                                ",
"                                                                                ",
"                                                                                ",
"                                                                                ",
"                                                                                ",
"                                                                                ",
"                                                                                ",
"                                                                                ",
"                                                                                ",
"                                                                                ",
"                                                                                ",
"                                                                                ",
"                                                                                ",
"                                                                                ",
"                                                                                ",
"                                                                                ",
"                                                                                ",
"                                                                                "};
